<svg width="20" height="21" viewBox="0 0 20 21" fill="none" xmlns="http://www.w3.org/2000/svg">
<path d="M17.6959 20.1176C18.0594 20.5334 18.6911 20.5758 19.1069 20.2123C19.5227 19.8488 19.5651 19.2171 19.2016 18.8013L17.6959 20.1176ZM11.7335 13.2973L17.6959 20.1176L19.2016 18.8013L13.2392 11.981L11.7335 13.2973Z" fill="#007998"/>
<path fill-rule="evenodd" clip-rule="evenodd" d="M7.90177 2.85328C4.98952 2.85328 2.62867 5.21413 2.62867 8.12638C2.62867 11.0386 4.98952 13.3995 7.90177 13.3995C10.814 13.3995 13.1749 11.0386 13.1749 8.12638C13.1749 5.21413 10.814 2.85328 7.90177 2.85328ZM0.391602 8.12638C0.391602 3.97863 3.75402 0.616211 7.90177 0.616211C12.0495 0.616211 15.4119 3.97863 15.4119 8.12638C15.4119 12.2741 12.0495 15.6365 7.90177 15.6365C3.75402 15.6365 0.391602 12.2741 0.391602 8.12638Z" fill="#007998"/>
</svg>
